<svg width="54" height="43" viewBox="0 0 54 43" xmlns="http://www.w3.org/2000/svg"><title>Icon</title><g stroke="#4AA0D5" stroke-width="3" fill="none" fill-rule="evenodd" stroke-linecap="round" stroke-linejoin="round"><path d="M51.957 36.766a4.34 4.34 0 0 1-4.34 4.34H6.383a4.342 4.342 0 0 1-4.34-4.34V6.384a4.343 4.343 0 0 1 4.34-4.34h41.232a4.34 4.34 0 0 1 4.34 4.34v30.382zM2.043 12.417h49.914"/><path d="M10.724 7.47a1.084 1.084 0 1 1-2.168 0 1.084 1.084 0 0 1 2.168 0zM17.234 7.47a1.084 1.084 0 1 1-2.168 0 1.084 1.084 0 0 1 2.168 0zM23.745 7.47a1.084 1.084 0 1 1-2.168 0 1.084 1.084 0 0 1 2.168 0zM30.234 23.677l6.443-6.443M17.145 36.766l6.524-6.52M21.39 36.766h-4.245v-4.243M36.677 21.48v-4.246H32.43M30.234 30.323l6.443 6.443M17.145 17.234l6.524 6.524M17.145 21.48v-4.246h4.245M32.43 36.766h4.247v-4.243"/></g></svg>