<svg width="52" height="52" viewBox="0 0 52 52" xmlns="http://www.w3.org/2000/svg"><title>Icon</title><g stroke="#4AA0D5" stroke-width="3" fill="none" fill-rule="evenodd" stroke-linecap="round" stroke-linejoin="round"><path d="M38.468 13.533L49.958 2.04M2.042 49.958l11.425-11.425M12.458 49.958H2.042V39.542M49.958 12.458V2.042H39.542M38.468 38.468l11.49 11.49M2.042 2.042l11.425 11.425M2.042 12.458V2.042h10.416M39.542 49.958h10.416V39.542M32.185 14.542a6.25 6.25 0 0 1-12.5 0 6.25 6.25 0 0 1 12.5 0zM35.31 24.958H16.56c0 4.342 2.083 10.417 6.25 11.875v8.96h6.25v-8.96c4.166-1.458 6.25-7.533 6.25-11.875z"/></g></svg>