<svg width="52" height="52" viewBox="0 0 52 52" xmlns="http://www.w3.org/2000/svg"><title>Icon</title><g stroke="#4AA0D5" stroke-width="3" fill="none" fill-rule="evenodd" stroke-linejoin="round"><path d="M44.75 36.417l-6.302 6.25-4.115-4.177" stroke-linecap="round"/><path d="M49.958 39.542c0 5.754-4.662 10.416-10.416 10.416-5.755 0-10.417-4.662-10.417-10.416 0-5.752 4.663-10.417 10.417-10.417s10.416 4.665 10.416 10.417zM30.09 28.67c-1.617-.534-3.363-1.11-5.135-1.776v-5.208s3.124-1.292 3.124-6.25c1.63 0 1.63-4.317 0-4.317 0-.486 1.724-3.35 1.04-6.1-.987-3.97-12.552-3.97-13.54 0-4.934-.995-2.082 5.582-2.082 6.25-1.63 0-1.63 4.166 0 4.166 0 4.958 3.124 6.25 3.124 6.25v5.208c-5.784 2.198-12.68 3.656-13.54 6.25-.987 2.975-1.04 8.48-1.04 8.48h21.87"/></g></svg>