<svg width="52" height="52" viewBox="0 0 52 52" xmlns="http://www.w3.org/2000/svg"><title>Icon</title><g stroke="#4AA0D5" stroke-width="3" fill="none" fill-rule="evenodd" stroke-linejoin="round"><path d="M39.542 20.792c0 10.356-8.394 18.75-18.75 18.75-10.357 0-18.75-8.394-18.75-18.75 0-10.357 8.393-18.75 18.75-18.75 10.356 0 18.75 8.393 18.75 18.75zM34.05 34.05l15.91 15.91" stroke-linecap="round"/><path d="M30.163 32.443a90.917 90.917 0 0 0-5.205-2.277V26s2.084-.727 2.084-5.21c1.448 0 2.083-4.165.066-4.165 0-.44 1.596-2.723.975-5.21-1.04-4.165-11.458-4.165-12.5 0-4.387-.893-1.04 4.61-1.04 5.21-2.085 0-1.45 4.166 0 4.166 0 4.482 2.082 5.21 2.082 5.21v4.166c-1.71.684-3.53 1.48-5.208 2.28"/></g></svg>