<svg width="52" height="46" viewBox="0 0 52 46" xmlns="http://www.w3.org/2000/svg"><title>Icon</title><g stroke="#4AA0D5" stroke-width="3" fill="none" fill-rule="evenodd" stroke-linejoin="round"><path d="M2.042 16.625v6.25c0 1.72.364 3.125 2.083 3.125v9.375h6.25V26c1.717 0 2.08-1.408 2.083-3.125v-6.25H2.042zM39.542 16.625v6.25c0 1.72.364 3.125 2.083 3.125v9.375h6.25V26c1.717 0 2.08-1.408 2.083-3.125v-6.25H39.542zM18.708 16.625h14.584v10.417a4.18 4.18 0 0 1-4.167 4.166v12.5h-6.25v-12.5a4.178 4.178 0 0 1-4.167-4.166V16.625zM10.375 9.333a3.126 3.126 0 0 1-6.25 0 3.126 3.126 0 0 1 6.25 0zM47.875 9.333a3.126 3.126 0 0 1-6.25 0 3.126 3.126 0 0 1 6.25 0zM31.212 7.25a5.208 5.208 0 0 1-5.21 5.208 5.208 5.208 0 0 1 0-10.416c2.878 0 5.21 2.33 5.21 5.208z"/></g></svg>