<svg width="52" height="52" viewBox="0 0 52 52" xmlns="http://www.w3.org/2000/svg"><title>Icon</title><g stroke="#4AA0D5" stroke-width="3" fill="none" fill-rule="evenodd" stroke-linecap="round" stroke-linejoin="round"><path d="M32.25 8.292a6.25 6.25 0 1 1-12.502-.002 6.25 6.25 0 0 1 12.502.002zM35.375 18.708h-18.75c0 4.342 2.083 10.417 6.25 11.875v8.96h6.25v-8.96c4.167-1.458 6.25-7.533 6.25-11.875z"/><path d="M34.374 38.12c3.756.66 6.208 1.75 6.208 2.984 0 2.015-6.53 3.646-14.583 3.646s-14.584-1.63-14.584-3.646c0-1.235 2.466-2.33 6.237-2.988"/><path d="M34.342 33.81c9.12 1.176 15.62 4.233 15.62 7.814 0 4.602-10.728 8.333-23.96 8.333-13.233 0-23.96-3.73-23.96-8.333 0-3.58 6.5-6.638 15.623-7.815"/></g></svg>