<svg width="44" height="421" viewBox="0 0 44 421" xmlns="http://www.w3.org/2000/svg"><title>Numbers</title><g transform="translate(2 2)" fill="none" fill-rule="evenodd"><g transform="translate(0 377)"><circle stroke="#4AA0D5" stroke-width="3" cx="20" cy="20" r="20"/><path d="M17.193 15.586a2.84 2.84 0 0 1 1.536-.456c1.175 0 1.583 1.032 1.583 1.512 0 .072.12 1.704-1.536 1.704h-.624c-.696 0-1.344.696-1.344 1.44 0 .792.623 1.44 1.343 1.44h.768c2.113 0 2.017 1.8 1.993 2.088-.096.816-1.056 1.752-2.256 1.68-.648-.024-1.44-.336-1.992-.792-.816-.696-1.752-.528-2.28.072-.6.672-.432 1.656.048 2.136 1.032 1.08 2.376 1.728 3.96 1.824 3.144.216 5.928-1.776 6.192-4.464.144-1.68-.96-3.648-2.688-4.272 1.152-.648 2.016-1.776 2.016-3.072.072-2.256-1.92-4.272-4.656-4.416-1.68-.096-3.192.504-4.224 1.488-.552.528-.648 1.44-.096 2.04.6.624 1.248.696 2.256.048z" fill="#4AA0D5"/></g><g transform="translate(0 241)"><circle stroke="#4AA0D5" stroke-width="3" cx="20" cy="20" r="20"/><path d="M17.072 16.608c.36-.864 1.08-1.392 2.016-1.392 1.248 0 1.968.72 1.968 1.56 0 .6-.408 1.224-.84 1.776l-5.712 7.08c-.288.336-.504.816-.504 1.272 0 .696.432 1.128 1.08 1.128h8.016c.792 0 1.464-.768 1.464-1.584 0-.864-.672-1.584-1.464-1.584h-3.888l3.552-4.104c.912-1.104 1.656-2.472 1.656-3.984 0-2.832-2.352-4.776-5.136-4.776-2.544 0-4.392 1.368-5.184 3.624-.288.912.168 1.752.936 1.968 1.008.288 1.752-.312 2.04-.984z" fill="#4AA0D5"/></g><g transform="translate(0 105)"><circle stroke="#4AA0D5" stroke-width="3" cx="20" cy="20" r="20"/><path d="M16.68 14.112c-.624.288-.864 1.104-.528 1.776.312.672 1.128.936 1.728.672l1.08-.456v10.488c0 .816.816 1.56 1.68 1.56.912 0 1.68-.72 1.68-1.56V12.744a.747.747 0 0 0-.744-.744h-.048a1.98 1.98 0 0 0-.816.192l-4.032 1.92z" fill="#4AA0D5"/></g><path d="M20 20.5V104.5M20 145.5v95M20 281.5v95" stroke="#4AA0D5" stroke-width="3" stroke-linecap="square"/><circle stroke="#4AA0D5" stroke-width="3" cx="20" cy="10" r="10"/><circle fill="#4AA0D5" cx="20" cy="10" r="5"/></g></svg>