<svg xmlns="http://www.w3.org/2000/svg" width="35" height="28.2" viewBox="-405.5 283.8 35 28.2">
	<style>.st0{fill:#4AA0D5}.st1{opacity:.1}.st2{fill:#AADAF7}</style>
	<path class="st0" d="M-405.5 283.8h35V312h-35z" id="Layer_2"/>
	<g id="Layer_1">
		<title>Pattern 4</title>
		<g class="st1">
			<path class="st2" d="M-388 286.5c1.5 0 2.8-1.2 2.8-2.8h-5.6c0 1.6 1.3 2.8 2.8 2.8zm-8.7 8.6c-.6 0-1.1.2-1.6.5-.8.5-1.3 1.3-1.3 2.3 0 1.5 1.3 2.8 2.8 2.8.6 0 1.1-.2 1.6-.5.8-.5 1.3-1.3 1.3-2.3 0-1.5-1.3-2.8-2.8-2.8zm8.7 14.2c-1.5 0-2.8 1.2-2.8 2.8h5.6c0-1.6-1.3-2.8-2.8-2.8zm14.7-25.5c0 1.5 1.3 2.8 2.8 2.8v-2.8h-2.8zm-29.4 0h-2.8v2.8c1.5-.1 2.8-1.3 2.8-2.8z"/>
			<path class="st2" d="M-380.9 294.9c.5-.3 1-.5 1.6-.5.5 0 1 .1 1.4.4.1.1.3 0 .3-.2-.5-4.3-3.6-7.7-7.7-8.8-.1 0-.1 0-.2.1-.6.8-1.5 1.3-2.6 1.3-1 0-2-.5-2.6-1.3 0-.1-.1-.1-.2-.1-4.1 1.1-7.2 4.5-7.7 8.8 0 .1.1.2.3.2.4-.2.9-.4 1.4-.4.6 0 1.1.2 1.6.5.1.1.2 0 .3-.1.5-3.3 3.4-5.8 6.9-5.9 3.5 0 6.4 2.6 6.9 5.9.1.1.2.2.3.1zm3.5 6.1c0-.1-.2-.2-.3-.1-.5.3-1 .5-1.6.5-.5 0-1-.1-1.4-.4-.1-.1-.3 0-.3.2.5 4.3 3.6 7.7 7.7 8.8.1 0 .1 0 .2-.1.6-.8 1.5-1.3 2.6-1.3v-1.7c-3.5-.1-6.4-2.6-6.9-5.9zm-1.8-.3c1.5 0 2.8-1.2 2.8-2.8 0-.6-.2-1.1-.5-1.5-.5-.7-1.4-1.2-2.3-1.2-1.5 0-2.8 1.2-2.8 2.8 0 .6.2 1.1.5 1.5.4.7 1.3 1.2 2.3 1.2zm5.9 11.3h2.8v-2.8c-1.6.1-2.8 1.3-2.8 2.8zm-32.2-2.7v2.8h2.8c0-1.6-1.3-2.8-2.8-2.8zm10.1-8.3c-.4.2-.9.4-1.4.4-.6 0-1.1-.2-1.6-.5-.1-.1-.2 0-.3.1-.5 3.3-3.4 5.8-6.9 5.9v1.7c1 0 2 .5 2.6 1.3 0 .1.1.1.2.1 4.1-1.1 7.2-4.5 7.7-8.8 0-.2-.1-.3-.3-.2z"/>
		</g>
	</g>
</svg>