<svg version="1.1" id="Layer_1" xmlns="http://www.w3.org/2000/svg" xmlns:xlink="http://www.w3.org/1999/xlink" x="0px" y="0px"
	 viewBox="0 0 25 25" enable-background="new 0 0 25 25" xml:space="preserve">
<path id="XMLID_32_" d="M-20,3c0-1.7-1.3-3-3-3h-19c-1.7,0-3,1.3-3,3v19c0,1.7,1.3,3,3,3h19c1.7,0,3-1.3,3-3V3z M-27.3,8.9l-7.5,7
	C-34.9,16-35,16-35.1,16c-0.1,0-0.3,0-0.4-0.1l-2.5-2.5c-0.2-0.2-0.2-0.5,0-0.7c0.2-0.2,0.5-0.2,0.7,0l2.2,2.2l7.1-6.7
	c0.2-0.2,0.5-0.2,0.7,0C-27.1,8.4-27.1,8.7-27.3,8.9z"/>
<path id="XMLID_108_" d="M22,1c1.1,0,2,0.9,2,2v19c0,1.1-0.9,2-2,2H3c-1.1,0-2-0.9-2-2V3c0-1.1,0.9-2,2-2H22 M22,0H3
	C1.3,0,0,1.3,0,3v19c0,1.7,1.3,3,3,3h19c1.7,0,3-1.3,3-3V3C25,1.3,23.7,0,22,0L22,0z"/>
</svg>
