<?xml version="1.0" encoding="UTF-8" standalone="no"?>
<svg width="8px" height="11px" viewBox="0 0 8 11" version="1.1" xmlns="http://www.w3.org/2000/svg" xmlns:xlink="http://www.w3.org/1999/xlink">
    <!-- Generator: Sketch 3.6.1 (26313) - http://www.bohemiancoding.com/sketch -->
    <title>Fill 397</title>
    <desc>Created with Sketch.</desc>
    <defs></defs>
    <g id="Advert-create-page" stroke="none" stroke-width="1" fill="none" fill-rule="evenodd">
        <g id="Advert-create---option-4" transform="translate(-757.000000, -1574.000000)" fill="#454553">
            <g id="Create-form" transform="translate(163.000000, 421.000000)">
                <g id="Availability" transform="translate(40.000000, 987.000000)">
                    <g id="Calendar" transform="translate(0.000000, 141.000000)">
                        <g id="Top-half">
                            <g id="Months">
                                <g id="Icon" transform="translate(397.185477, 22.711147)">
                                    <path d="M164.411885,7.3651647 L158.879291,2.574366 C158.837236,2.53811626 158.782688,2.52019973 158.727725,2.5239497 C158.672345,2.528533 158.621128,2.55394948 158.584902,2.59644917 L157.663428,3.67227473 C157.627618,3.7139411 157.609713,3.7689407 157.613877,3.8239403 C157.618458,3.87935657 157.64469,3.9306062 157.686746,3.96643927 L161.871897,7.52266356 L157.686746,11.0805545 C157.64469,11.1163876 157.618458,11.1676372 157.613877,11.2230535 C157.609713,11.2780531 157.627618,11.3330527 157.663428,11.374719 L158.584902,12.4505446 C158.621128,12.4930443 158.672345,12.5184608 158.727725,12.5230441 C158.732721,12.5234607 158.738134,12.5234607 158.743131,12.5234607 C158.792682,12.5234607 158.8414,12.5055442 158.879291,12.4726278 L164.411885,7.68016242 C164.457688,7.64057938 164.483921,7.58307979 164.483921,7.52266356 C164.483921,7.46183067 164.457688,7.40474775 164.411885,7.3651647" id="Fill-397"></path>
                                </g>
                            </g>
                        </g>
                    </g>
                </g>
            </g>
        </g>
    </g>
</svg>