<?xml version="1.0" encoding="UTF-8" standalone="no"?>
<svg width="8px" height="11px" viewBox="0 0 8 11" version="1.1" xmlns="http://www.w3.org/2000/svg" xmlns:xlink="http://www.w3.org/1999/xlink">
    <!-- Generator: Sketch 3.6.1 (26313) - http://www.bohemiancoding.com/sketch -->
    <title>Fill 397</title>
    <desc>Created with Sketch.</desc>
    <defs></defs>
    <g id="Advert-create-page" stroke="none" stroke-width="1" fill="none" fill-rule="evenodd">
        <g id="Advert-create---option-4" transform="translate(-600.000000, -1574.000000)" fill="#454553">
            <g id="Create-form" transform="translate(163.000000, 421.000000)">
                <g id="Availability" transform="translate(40.000000, 987.000000)">
                    <g id="Calendar" transform="translate(0.000000, 141.000000)">
                        <g id="Top-half">
                            <g id="Months">
                                <g id="Icon" transform="translate(397.185477, 22.711147)">
                                    <path d="M6.7986006,7.3651647 L1.26600658,2.574366 C1.22395104,2.53811626 1.16940375,2.52019973 1.11444007,2.5239497 C1.05906,2.528533 1.00784384,2.55394948 0.971617783,2.59644917 L0.0501433668,3.67227473 C0.0143336968,3.7139411 -0.00357113822,3.7689407 0.000592776897,3.8239403 C0.00517308353,3.87935657 0.0314057488,3.9306062 0.0734612915,3.96643927 L4.25861238,7.52266356 L0.0734612915,11.0805545 C0.0314057488,11.1163876 0.00517308353,11.1676372 0.000592776897,11.2230535 C-0.00357113822,11.2780531 0.0143336968,11.3330527 0.0501433668,11.374719 L0.971617783,12.4505446 C1.00784384,12.4930443 1.05906,12.5184608 1.11444007,12.5230441 C1.11943677,12.5234607 1.12484986,12.5234607 1.12984656,12.5234607 C1.17939715,12.5234607 1.22811495,12.5055442 1.26600658,12.4726278 L6.7986006,7.68016242 C6.84440367,7.64057938 6.87063634,7.58307979 6.87063634,7.52266356 C6.87063634,7.46183067 6.84440367,7.40474775 6.7986006,7.3651647" id="Fill-397" transform="translate(3.435318, 7.523461) scale(-1, 1) translate(-3.435318, -7.523461) "></path>
                                </g>
                            </g>
                        </g>
                    </g>
                </g>
            </g>
        </g>
    </g>
</svg>