<?xml version="1.0" encoding="utf-8"?>
<!-- Generator: Adobe Illustrator 19.0.0, SVG Export Plug-In . SVG Version: 6.00 Build 0)  -->
<!DOCTYPE svg PUBLIC "-//W3C//DTD SVG 1.1//EN" "http://www.w3.org/Graphics/SVG/1.1/DTD/svg11.dtd">
<svg version="1.1" id="Layer_1" xmlns="http://www.w3.org/2000/svg" xmlns:xlink="http://www.w3.org/1999/xlink" x="0px" y="0px"
	 viewBox="-365 284.3 110 28" style="enable-background:new -365 284.3 110 28;" xml:space="preserve">
<style type="text/css">
	.st0{opacity:0.8;}
	.st1{fill:#454553;}
</style>
<title>Group</title>
<desc>Created with Sketch.</desc>
<g id="Page-1">
	<g id="Logo" transform="translate(-168.000000, -239.000000)">
		<g id="Group" transform="translate(168.000000, 239.000000)">
			<g id="Combined-Shape" class="st0">
				<path class="st1" d="M-362.2,305.3c1.5,0,2.8-1.3,2.8-2.8c0-1.6-1.2-2.8-2.8-2.8s-2.8,1.3-2.8,2.8
					C-365,304-363.8,305.3-362.2,305.3z M-353.5,290.9c1.5,0,2.8-1.3,2.8-2.8c0-1.6-1.2-2.8-2.8-2.8s-2.8,1.3-2.8,2.8
					C-356.3,289.6-355,290.9-353.5,290.9z M-344.8,299c0.5,0,1,0.1,1.4,0.4c0.1,0.1,0.3,0,0.3-0.2c-0.5-4.3-3.6-7.9-7.7-9
					c-0.1,0-0.1,0-0.2,0.1c-0.6,0.8-1.5,1.3-2.6,1.3s-2-0.5-2.5-1.3c0-0.1-0.1-0.1-0.2-0.1c-4.1,1.1-7.2,4.6-7.7,9
					c0,0.1,0.1,0.2,0.3,0.2c0.4-0.2,0.9-0.4,1.4-0.4c0.6,0,1.1,0.2,1.6,0.5c0.1,0.1,0.2,0,0.3-0.1c0.5-3.4,3.4-6,6.9-6
					c3.5,0,6.4,2.6,6.9,6c0,0.1,0.2,0.2,0.3,0.1C-345.9,299.1-345.4,299-344.8,299z M-344.8,305.3c1.5,0,2.8-1.3,2.8-2.8
					c0-1.6-1.2-2.8-2.8-2.8s-2.8,1.3-2.8,2.8C-347.6,304-346.3,305.3-344.8,305.3z"/>
			</g>
			<g id="kangu" class="st0">
				<path class="st1" d="M-323,304.9c0.6,0.7,1.9,0.8,2.6,0.2c0.8-0.6,0.8-1.8,0.1-2.5l-4.3-4.5l3.1-3c0.7-0.8,0.5-1.9-0.3-2.5
					c-0.8-0.6-1.9-0.5-2.5,0.2l-3.1,3.1v-9.1c0-1-0.9-1.7-2-1.7c-1,0-1.9,0.8-2,1.7v17c0,1,0.9,1.7,2,1.7c1.1,0,2-0.8,2-1.7v-3.6
					L-323,304.9z M-308.1,294.1c-1.1-1.7-3.1-2.1-3.9-2.1c-3.3,0-6.4,2.4-6.4,6.8s3,6.8,6.4,6.8c1.5,0,3.1-0.7,3.9-2.1v0.3
					c0,1,0.9,1.7,2,1.7c1.1,0,2-0.8,2-1.7v-9.9c0-1-0.9-1.7-2-1.7c-1,0-1.9,0.8-2,1.7V294.1L-308.1,294.1z M-314.4,298.8
					c0-1.7,1.1-3.3,3.1-3.3c1.8,0,3.2,1.6,3.2,3.3c0,1.7-1.4,3.3-3.2,3.3C-313.3,302.1-314.4,300.5-314.4,298.8L-314.4,298.8z
					 M-297,293.8c0-1-0.9-1.7-2-1.7c-1,0-1.9,0.8-2,1.7v9.9c0,1,0.9,1.7,2,1.7c1.1,0,2-0.8,2-1.7v-5.3c0-2,1-2.7,2.4-2.7
					c1.3,0,2.3,0.9,2.3,2.6v5.4c0,1,0.9,1.7,2,1.7c1.1,0,2-0.8,2-1.7v-6.2c0-3.7-1.9-5.5-4.8-5.5c-1.5,0-3.1,0.9-3.8,2.2V293.8z
					 M-284.5,309.2c1.3,1.6,3.3,2.6,5.5,2.6c4.6,0,7.4-2.7,7.4-8.3v-9.7c0-1-0.9-1.7-2-1.7c-1,0-1.9,0.8-2,1.7v0.3
					c-1.1-1.7-3.1-2.1-3.9-2.1c-3.3,0-6.4,2.4-6.4,6.8s3,6.8,6.4,6.8c1.6,0,3.2-0.8,4.1-2.2v0.4c0.2,2.6-0.6,4.6-3.6,4.6
					c-1.1,0-2.2-0.6-2.9-1.4c-0.5-0.6-1.7-0.7-2.4-0.1C-285,307.4-285.1,308.5-284.5,309.2L-284.5,309.2z M-281.8,298.8
					c0-1.7,1.1-3.3,3.1-3.3c1.8,0,3.2,1.6,3.2,3.3c0,1.7-1.4,3.3-3.2,3.3C-280.6,302.1-281.8,300.5-281.8,298.8L-281.8,298.8z
					 M-259.7,303.7c0,1,0.9,1.7,2,1.7c1,0,1.9-0.8,2-1.7v-9.9c0-1-0.9-1.7-2-1.7c-1.1,0-2,0.8-2,1.7v5.3c0,2-1,2.6-2.4,2.6
					c-1.6,0-2.3-0.8-2.3-2.6v-5.4c0-1-0.9-1.7-2-1.7c-1.1,0-2,0.8-2,1.7v6.6c0,3.7,1.9,5.2,4.8,5.2c1.5,0,3.1-0.8,3.8-2.2V303.7z"/>
			</g>
		</g>
	</g>
</g>
</svg>
