<svg id="Layer_1" xmlns="http://www.w3.org/2000/svg" viewBox="-365 284.3 110 28"><style>.st1{fill:#FFFFFF}</style><title>Group</title><g id="Page-1"><g id="Logo"><g id="Group"><path class="st0 st1" d="M-362.2 305.3c1.5 0 2.8-1.3 2.8-2.8 0-1.6-1.2-2.8-2.8-2.8s-2.8 1.3-2.8 2.8c0 1.5 1.2 2.8 2.8 2.8zm8.7-14.4c1.5 0 2.8-1.3 2.8-2.8 0-1.6-1.2-2.8-2.8-2.8s-2.8 1.3-2.8 2.8c0 1.5 1.3 2.8 2.8 2.8zm8.7 8.1c.5 0 1 .1 1.4.4.1.1.3 0 .3-.2-.5-4.3-3.6-7.9-7.7-9-.1 0-.1 0-.2.1-.6.8-1.5 1.3-2.6 1.3s-2-.5-2.5-1.3c0-.1-.1-.1-.2-.1-4.1 1.1-7.2 4.6-7.7 9 0 .1.1.2.3.2.4-.2.9-.4 1.4-.4.6 0 1.1.2 1.6.5.1.1.2 0 .3-.1.5-3.4 3.4-6 6.9-6 3.5 0 6.4 2.6 6.9 6 0 .1.2.2.3.1.4-.4.9-.5 1.5-.5zm0 6.3c1.5 0 2.8-1.3 2.8-2.8 0-1.6-1.2-2.8-2.8-2.8s-2.8 1.3-2.8 2.8c0 1.5 1.3 2.8 2.8 2.8z" id="Combined-Shape"/><path class="st0 st1" d="M-323 304.9c.6.7 1.9.8 2.6.2.8-.6.8-1.8.1-2.5l-4.3-4.5 3.1-3c.7-.8.5-1.9-.3-2.5-.8-.6-1.9-.5-2.5.2l-3.1 3.1v-9.1c0-1-.9-1.7-2-1.7-1 0-1.9.8-2 1.7v17c0 1 .9 1.7 2 1.7s2-.8 2-1.7v-3.6l4.4 4.7zm14.9-10.8c-1.1-1.7-3.1-2.1-3.9-2.1-3.3 0-6.4 2.4-6.4 6.8s3 6.8 6.4 6.8c1.5 0 3.1-.7 3.9-2.1v.3c0 1 .9 1.7 2 1.7s2-.8 2-1.7v-9.9c0-1-.9-1.7-2-1.7-1 0-1.9.8-2 1.7v.2zm-6.3 4.7c0-1.7 1.1-3.3 3.1-3.3 1.8 0 3.2 1.6 3.2 3.3 0 1.7-1.4 3.3-3.2 3.3-2 0-3.1-1.6-3.1-3.3zm17.4-5c0-1-.9-1.7-2-1.7-1 0-1.9.8-2 1.7v9.9c0 1 .9 1.7 2 1.7s2-.8 2-1.7v-5.3c0-2 1-2.7 2.4-2.7 1.3 0 2.3.9 2.3 2.6v5.4c0 1 .9 1.7 2 1.7s2-.8 2-1.7v-6.2c0-3.7-1.9-5.5-4.8-5.5-1.5 0-3.1.9-3.8 2.2v-.4zm12.5 15.4c1.3 1.6 3.3 2.6 5.5 2.6 4.6 0 7.4-2.7 7.4-8.3v-9.7c0-1-.9-1.7-2-1.7-1 0-1.9.8-2 1.7v.3c-1.1-1.7-3.1-2.1-3.9-2.1-3.3 0-6.4 2.4-6.4 6.8s3 6.8 6.4 6.8c1.6 0 3.2-.8 4.1-2.2v.4c.2 2.6-.6 4.6-3.6 4.6-1.1 0-2.2-.6-2.9-1.4-.5-.6-1.7-.7-2.4-.1-.7.5-.8 1.6-.2 2.3zm2.7-10.4c0-1.7 1.1-3.3 3.1-3.3 1.8 0 3.2 1.6 3.2 3.3 0 1.7-1.4 3.3-3.2 3.3-1.9 0-3.1-1.6-3.1-3.3zm22.1 4.9c0 1 .9 1.7 2 1.7 1 0 1.9-.8 2-1.7v-9.9c0-1-.9-1.7-2-1.7s-2 .8-2 1.7v5.3c0 2-1 2.6-2.4 2.6-1.6 0-2.3-.8-2.3-2.6v-5.4c0-1-.9-1.7-2-1.7s-2 .8-2 1.7v6.6c0 3.7 1.9 5.2 4.8 5.2 1.5 0 3.1-.8 3.8-2.2v.4z" id="kangu"/></g></g></g></svg>