<?xml version="1.0" encoding="UTF-8" standalone="no"?>
<svg width="52px" height="52px" viewBox="0 0 52 52" version="1.1" xmlns="http://www.w3.org/2000/svg" xmlns:xlink="http://www.w3.org/1999/xlink">
    <!-- Generator: Sketch 3.6.1 (26313) - http://www.bohemiancoding.com/sketch -->
    <title>Icon</title>
    <desc>Created with Sketch.</desc>
    <defs></defs>
    <g id="Promotional-page" stroke="none" stroke-width="1" fill="none" fill-rule="evenodd" stroke-linejoin="round">
        <g id="Promotional---option-2" transform="translate(-903.000000, -1517.000000)" stroke="#4AA0D5" stroke-width="3">
            <g id="Product-information" transform="translate(105.000000, 1323.000000)">
                <g id="Feature-List" transform="translate(0.000000, 188.000000)">
                    <g id="Feature-3" transform="translate(800.000000, 6.000000)">
                        <g id="Icon" transform="translate(0.000000, 2.000000)">
                            <path d="M42.75,34.4166667 L36.4479167,40.6666667 L32.3333333,36.4895833" id="Stroke-507" stroke-linecap="round"></path>
                            <path d="M47.9583333,37.5416667 C47.9583333,43.2958333 43.2958333,47.9583333 37.5416667,47.9583333 C31.7875,47.9583333 27.125,43.2958333 27.125,37.5416667 C27.125,31.7895833 31.7875,27.125 37.5416667,27.125 C43.2958333,27.125 47.9583333,31.7895833 47.9583333,37.5416667 L47.9583333,37.5416667 Z" id="Stroke-508"></path>
                            <path d="M28.0912492,26.67125 C26.4727397,26.1358333 24.7271657,25.5608333 22.9545124,24.8941667 L22.9545124,19.6858333 C22.9545124,19.6858333 26.0790482,18.3941667 26.0790482,13.4358333 C27.7100559,13.4358333 27.7100559,9.11916667 26.0790482,9.11916667 C26.0790482,8.63375 27.8037919,5.77125 27.1205601,3.01916667 C26.1332068,-0.949583333 14.5682584,-0.949583333 13.5809051,3.01916667 C8.64622155,2.02541667 11.4978812,8.6025 11.4978812,9.26916667 C9.86687353,9.26916667 9.86687353,13.4358333 11.4978812,13.4358333 C11.4978812,18.3941667 14.622417,19.6858333 14.622417,19.6858333 L14.622417,24.8941667 C8.83785974,27.0920833 1.94096776,28.5504167 1.08276193,31.1441667 C0.0954086202,34.1191667 0.04125,39.6254167 0.04125,39.6254167 L21.9130005,39.6254167" id="Stroke-509"></path>
                        </g>
                    </g>
                </g>
            </g>
        </g>
    </g>
</svg>