<?xml version="1.0" encoding="UTF-8" standalone="no"?>
<svg width="52px" height="46px" viewBox="0 0 52 46" version="1.1" xmlns="http://www.w3.org/2000/svg" xmlns:xlink="http://www.w3.org/1999/xlink">
    <!-- Generator: Sketch 3.6.1 (26313) - http://www.bohemiancoding.com/sketch -->
    <title>Icon</title>
    <desc>Created with Sketch.</desc>
    <defs></defs>
    <g id="Promotional-page" stroke="none" stroke-width="1" fill="none" fill-rule="evenodd" stroke-linejoin="round">
        <g id="Promotional---option-2" transform="translate(-104.000000, -1517.000000)" stroke="#4AA0D5" stroke-width="3">
            <g id="Product-information" transform="translate(105.000000, 1323.000000)">
                <g id="Feature-List" transform="translate(0.000000, 188.000000)">
                    <g id="Feature-1" transform="translate(1.000000, 0.000000)">
                        <g id="Icon" transform="translate(0.000000, 8.000000)">
                            <path d="M0.0416666667,14.625 L0.0416666667,20.875 C0.0416666667,22.59375 0.40625,24 2.125,24 L2.125,33.375 L8.375,33.375 L8.375,24 C10.0916667,24 10.45625,22.5916667 10.4583333,20.875 L10.4583333,14.625 L0.0416666667,14.625 L0.0416666667,14.625 Z" id="Stroke-1247"></path>
                            <path d="M37.5416667,14.625 L37.5416667,20.875 C37.5416667,22.59375 37.90625,24 39.625,24 L39.625,33.375 L45.875,33.375 L45.875,24 C47.5916667,24 47.95625,22.5916667 47.9583333,20.875 L47.9583333,14.625 L37.5416667,14.625 L37.5416667,14.625 Z" id="Stroke-1248"></path>
                            <path d="M16.7083333,14.625 L31.2916667,14.625 L31.2916667,25.0416667 C31.2916667,27.3333333 29.4166667,29.2083333 27.125,29.2083333 L27.125,41.7083333 L20.875,41.7083333 L20.875,29.2083333 C18.58125,29.2083333 16.7083333,27.3333333 16.7083333,25.0416667 L16.7083333,14.625 L16.7083333,14.625 Z" id="Stroke-1249"></path>
                            <path d="M8.375,7.33333333 C8.375,9.05833333 6.975,10.4583333 5.25,10.4583333 C3.525,10.4583333 2.125,9.05833333 2.125,7.33333333 C2.125,5.60833333 3.525,4.20833333 5.25,4.20833333 C6.975,4.20833333 8.375,5.60833333 8.375,7.33333333 L8.375,7.33333333 Z" id="Stroke-1250"></path>
                            <path d="M45.875,7.33333333 C45.875,9.05833333 44.475,10.4583333 42.75,10.4583333 C41.025,10.4583333 39.625,9.05833333 39.625,7.33333333 C39.625,5.60833333 41.025,4.20833333 42.75,4.20833333 C44.475,4.20833333 45.875,5.60833333 45.875,7.33333333 L45.875,7.33333333 Z" id="Stroke-1251"></path>
                            <path d="M29.2116667,5.25 C29.2116667,8.12708333 26.8796707,10.4583333 24.0016667,10.4583333 C21.1236627,10.4583333 18.7916667,8.12708333 18.7916667,5.25 C18.7916667,2.37291667 21.1236627,0.0416666667 24.0016667,0.0416666667 C26.8796707,0.0416666667 29.2116667,2.37291667 29.2116667,5.25 L29.2116667,5.25 Z" id="Stroke-1252"></path>
                        </g>
                    </g>
                </g>
            </g>
        </g>
    </g>
</svg>