<?xml version="1.0" encoding="UTF-8" standalone="no"?>
<svg width="52px" height="52px" viewBox="0 0 52 52" version="1.1" xmlns="http://www.w3.org/2000/svg" xmlns:xlink="http://www.w3.org/1999/xlink">
    <!-- Generator: Sketch 3.6.1 (26313) - http://www.bohemiancoding.com/sketch -->
    <title>Icon</title>
    <desc>Created with Sketch.</desc>
    <defs></defs>
    <g id="Promotional-page" stroke="none" stroke-width="1" fill="none" fill-rule="evenodd" stroke-linecap="round" stroke-linejoin="round">
        <g id="Promotional---option-2" transform="translate(-504.000000, -1722.000000)" stroke="#4AA0D5" stroke-width="3">
            <g id="Product-information" transform="translate(105.000000, 1323.000000)">
                <g id="Feature-List" transform="translate(0.000000, 188.000000)">
                    <g id="Feature-5" transform="translate(401.000000, 205.000000)">
                        <g id="Icon" transform="translate(0.000000, 8.000000)">
                            <path d="M30.25,6.29166667 C30.25,9.74375 27.45,12.5416667 24,12.5416667 C20.5479167,12.5416667 17.75,9.74375 17.75,6.29166667 C17.75,2.83958333 20.5479167,0.0416666667 24,0.0416666667 C27.45,0.0416666667 30.25,2.83958333 30.25,6.29166667 L30.25,6.29166667 Z" id="Stroke-208"></path>
                            <path d="M33.375,16.7083333 L14.625,16.7083333 C14.625,21.05 16.7083333,27.125 20.875,28.5833333 L20.875,37.5416667 L27.125,37.5416667 L27.125,28.5833333 C31.2916667,27.125 33.375,21.05 33.375,16.7083333 L33.375,16.7083333 Z" id="Stroke-210"></path>
                            <path d="M32.3739583,36.1185417 C36.1302083,36.7789583 38.5822917,37.870625 38.5822917,39.1039583 C38.5822917,41.1185417 32.053125,42.7497917 23.9989583,42.7497917 C15.946875,42.7497917 9.415625,41.1185417 9.415625,39.1039583 C9.415625,37.8685417 11.8822917,36.7747917 15.653125,36.1164583" id="Stroke-212"></path>
                            <path d="M32.3416206,31.809375 C41.4610046,32.9864583 47.9614565,36.0427083 47.9614565,39.6239583 C47.9614565,44.2260417 37.2336273,47.9572917 24.0014574,47.9572917 C10.7692875,47.9572917 0.0414583333,44.2260417 0.0414583333,39.6239583 C0.0414583333,36.0427083 6.54191026,32.9864583 15.6654612,31.809375" id="Stroke-214"></path>
                        </g>
                    </g>
                </g>
            </g>
        </g>
    </g>
</svg>