<?xml version="1.0" encoding="UTF-8" standalone="no"?>
<svg width="54px" height="43px" viewBox="0 0 54 43" version="1.1" xmlns="http://www.w3.org/2000/svg" xmlns:xlink="http://www.w3.org/1999/xlink">
    <!-- Generator: Sketch 3.6.1 (26313) - http://www.bohemiancoding.com/sketch -->
    <title>Icon</title>
    <desc>Created with Sketch.</desc>
    <defs></defs>
    <g id="Promotional-page" stroke="none" stroke-width="1" fill="none" fill-rule="evenodd" stroke-linecap="round" stroke-linejoin="round">
        <g id="Promotional---option-2" transform="translate(-903.000000, -1722.000000)" stroke="#4AA0D5" stroke-width="3">
            <g id="Product-information" transform="translate(105.000000, 1323.000000)">
                <g id="Feature-List" transform="translate(0.000000, 188.000000)">
                    <g id="Feature-6" transform="translate(800.000000, 205.000000)">
                        <g id="Icon" transform="translate(0.000000, 8.000000)">
                            <path d="M49.9565972,34.765625 C49.9565972,37.1636285 48.0143229,39.1059028 45.6163194,39.1059028 L4.38368056,39.1059028 C1.99001736,39.1059028 0.0434027778,37.1636285 0.0434027778,34.765625 L0.0434027778,4.38368056 C0.0434027778,1.98784722 1.99001736,0.0434027778 4.38368056,0.0434027778 L45.6163194,0.0434027778 C48.0143229,0.0434027778 49.9565972,1.98784722 49.9565972,4.38368056 L49.9565972,34.765625 L49.9565972,34.765625 Z" id="Stroke-759"></path>
                            <path d="M0.0434027778,10.4166667 L49.9565972,10.4166667" id="Stroke-760"></path>
                            <path d="M8.72395833,5.46875 C8.72395833,6.06987847 8.23784722,6.55381944 7.63888889,6.55381944 C7.03993056,6.55381944 6.55381944,6.06987847 6.55381944,5.46875 C6.55381944,4.87196181 7.03993056,4.38368056 7.63888889,4.38368056 C8.23784722,4.38368056 8.72395833,4.87196181 8.72395833,5.46875 L8.72395833,5.46875 Z" id="Stroke-761"></path>
                            <path d="M15.234375,5.46875 C15.234375,6.06987847 14.7482639,6.55381944 14.1493056,6.55381944 C13.5503472,6.55381944 13.0642361,6.06987847 13.0642361,5.46875 C13.0642361,4.87196181 13.5503472,4.38368056 14.1493056,4.38368056 C14.7482639,4.38368056 15.234375,4.87196181 15.234375,5.46875 L15.234375,5.46875 Z" id="Stroke-762"></path>
                            <path d="M21.7447917,5.46875 C21.7447917,6.06987847 21.2586806,6.55381944 20.6597222,6.55381944 C20.0607639,6.55381944 19.5746528,6.06987847 19.5746528,5.46875 C19.5746528,4.87196181 20.0607639,4.38368056 20.6597222,4.38368056 C21.2586806,4.38368056 21.7447917,4.87196181 21.7447917,5.46875 L21.7447917,5.46875 Z" id="Stroke-763"></path>
                            <path d="M28.233941,21.6768663 L34.6770833,15.233724" id="Stroke-764"></path>
                            <path d="M15.1453993,34.765625 L21.6688368,28.2465278" id="Stroke-765"></path>
                            <path d="M19.390191,34.765625 L15.1453993,34.765625 L15.1453993,30.5230035" id="Stroke-766"></path>
                            <path d="M34.6766493,19.4813368 L34.6766493,15.234375 L30.4296875,15.234375" id="Stroke-767"></path>
                            <path d="M28.233941,28.3229167 L34.6770833,34.766059" id="Stroke-768"></path>
                            <path d="M15.1453993,15.234375 L21.6688368,21.7578125" id="Stroke-769"></path>
                            <path d="M15.1453993,19.4813368 L15.1453993,15.234375 L19.390191,15.234375" id="Stroke-770"></path>
                            <path d="M30.4296875,34.765625 L34.6766493,34.765625 L34.6766493,30.5230035" id="Stroke-771"></path>
                        </g>
                    </g>
                </g>
            </g>
        </g>
    </g>
</svg>