<?xml version="1.0" encoding="UTF-8" standalone="no"?>
<svg width="52px" height="52px" viewBox="0 0 52 52" version="1.1" xmlns="http://www.w3.org/2000/svg" xmlns:xlink="http://www.w3.org/1999/xlink">
    <!-- Generator: Sketch 3.6.1 (26313) - http://www.bohemiancoding.com/sketch -->
    <title>Icon</title>
    <desc>Created with Sketch.</desc>
    <defs></defs>
    <g id="Promotional-page" stroke="none" stroke-width="1" fill="none" fill-rule="evenodd" stroke-linecap="round" stroke-linejoin="round">
        <g id="Promotional---option-2" transform="translate(-103.000000, -1722.000000)" stroke="#4AA0D5" stroke-width="3">
            <g id="Product-information" transform="translate(105.000000, 1323.000000)">
                <g id="Feature-List" transform="translate(0.000000, 188.000000)">
                    <g id="Feature-4" transform="translate(0.000000, 205.000000)">
                        <g id="Icon" transform="translate(0.000000, 8.000000)">
                            <path d="M36.4675,11.5325 L47.9591667,0.0408333333" id="Stroke-1542"></path>
                            <path d="M0.0416666667,47.9583333 L11.4666667,36.5333333" id="Stroke-1543"></path>
                            <path d="M10.4583333,47.9583333 L0.0416666667,47.9583333 L0.0416666667,37.5416667" id="Stroke-1544"></path>
                            <path d="M47.9583333,10.4583333 L47.9583333,0.0416666667 L37.5416667,0.0416666667" id="Stroke-1545"></path>
                            <path d="M36.4675,36.4675 L47.9591667,47.9591667" id="Stroke-1546"></path>
                            <path d="M0.0416666667,0.0416666667 L11.4666667,11.4666667" id="Stroke-1547"></path>
                            <path d="M0.0416666667,10.4583333 L0.0416666667,0.0416666667 L10.4583333,0.0416666667" id="Stroke-1548"></path>
                            <path d="M37.5416667,47.9583333 L47.9583333,47.9583333 L47.9583333,37.5416667" id="Stroke-1549"></path>
                            <path d="M30.1847917,12.5416667 C30.1847917,15.99375 27.3847917,18.7916667 23.9347917,18.7916667 C20.4827083,18.7916667 17.6847917,15.99375 17.6847917,12.5416667 C17.6847917,9.09166667 20.4827083,6.29166667 23.9347917,6.29166667 C27.3847917,6.29166667 30.1847917,9.09166667 30.1847917,12.5416667 L30.1847917,12.5416667 Z" id="Stroke-1550"></path>
                            <path d="M33.3097917,22.9583333 L14.5597917,22.9583333 C14.5597917,27.3 16.643125,33.375 20.8097917,34.8333333 L20.8097917,43.7916667 L27.0597917,43.7916667 L27.0597917,34.8333333 C31.2264583,33.375 33.3097917,27.3 33.3097917,22.9583333 L33.3097917,22.9583333 Z" id="Stroke-1551"></path>
                        </g>
                    </g>
                </g>
            </g>
        </g>
    </g>
</svg>