<?xml version="1.0" encoding="UTF-8" standalone="no"?>
<svg width="52px" height="52px" viewBox="0 0 52 52" version="1.1" xmlns="http://www.w3.org/2000/svg" xmlns:xlink="http://www.w3.org/1999/xlink">
    <!-- Generator: Sketch 3.6.1 (26313) - http://www.bohemiancoding.com/sketch -->
    <title>Icon</title>
    <desc>Created with Sketch.</desc>
    <defs></defs>
    <g id="Promotional-page" stroke="none" stroke-width="1" fill="none" fill-rule="evenodd" stroke-linejoin="round">
        <g id="Promotional---option-2" transform="translate(-505.000000, -1517.000000)" stroke="#4AA0D5" stroke-width="3">
            <g id="Product-information" transform="translate(105.000000, 1323.000000)">
                <g id="Feature-List" transform="translate(0.000000, 188.000000)">
                    <g id="Feature-2" transform="translate(402.000000, 0.000000)">
                        <g id="Icon" transform="translate(0.000000, 8.000000)">
                            <path d="M37.5416667,18.7916667 C37.5416667,29.1479167 29.1479167,37.5416667 18.7916667,37.5416667 C8.43541667,37.5416667 0.0416666667,29.1479167 0.0416666667,18.7916667 C0.0416666667,8.43541667 8.43541667,0.0416666667 18.7916667,0.0416666667 C29.1479167,0.0416666667 37.5416667,8.43541667 37.5416667,18.7916667 L37.5416667,18.7916667 Z" id="Stroke-590" stroke-linecap="round"></path>
                            <path d="M32.0485417,32.050625 L47.9589583,47.9589583" id="Stroke-591" stroke-linecap="round"></path>
                            <path d="M28.1625,30.4433333 C26.4875,29.6454167 24.6666667,28.8495833 22.9583333,28.16625 L22.9583333,23.9995833 C22.9583333,23.9995833 25.0416667,23.2725 25.0416667,18.79125 C26.4895833,18.79125 27.125,14.6245833 25.1083333,14.6245833 C25.1083333,14.185 26.7041667,11.9016667 26.0833333,9.41625 C25.0416667,5.24958333 14.625,5.24958333 13.5833333,9.41625 C9.19583333,8.5225 12.5416667,14.0245833 12.5416667,14.6245833 C10.4583333,14.6245833 11.09375,18.79125 12.5416667,18.79125 C12.5416667,23.2725 14.625,23.9995833 14.625,23.9995833 L14.625,28.16625 C12.9145833,28.8495833 11.09375,29.6475 9.41666667,30.4454167" id="Stroke-592"></path>
                        </g>
                    </g>
                </g>
            </g>
        </g>
    </g>
</svg>