<?xml version="1.0" encoding="UTF-8" standalone="no"?>
<svg width="35px" height="35px" viewBox="0 0 35 35" version="1.1" xmlns="http://www.w3.org/2000/svg" xmlns:xlink="http://www.w3.org/1999/xlink" xmlns:sketch="http://www.bohemiancoding.com/sketch/ns">
    <!-- Generator: Sketch 3.5.1 (25234) - http://www.bohemiancoding.com/sketch -->
    <title>E-mail icon</title>
    <desc>Created with Sketch.</desc>
    <defs></defs>
    <g id="Sign-up-page" stroke="none" stroke-width="1" fill="none" fill-rule="evenodd" sketch:type="MSPage">
        <g id="Sign-up---option-1" sketch:type="MSArtboardGroup" transform="translate(-433.000000, -492.000000)" fill="#FFFFFF">
            <g id="Sign-up-information" sketch:type="MSLayerGroup" transform="translate(303.000000, 162.000000)">
                <g id="E-mail-icon" transform="translate(130.000000, 330.000000)" sketch:type="MSShapeGroup">
                    <path d="M26.9791667,13.4112708 L17.5,18.3550208 L8.02083333,13.4112708 L8.02083333,10.9379375 L26.9791667,10.9379375 L26.9791667,13.4112708 Z M26.9791667,22.2254375 L20.6908333,18.5300208 L26.9791667,15.2473125 L26.9791667,22.2254375 Z M26.9791667,25.5212708 L8.02083333,25.5212708 L8.02083333,23.9535625 L15.8127083,19.3131458 L17.5,20.1939792 L19.166875,19.3248125 L26.9791667,23.9171042 L26.9791667,25.5212708 Z M8.02083333,15.2473125 L14.293125,18.5198125 L8.02083333,22.2560625 L8.02083333,15.2473125 Z M17.5,0.0004375 C7.85020833,0.0004375 0,7.85064583 0,17.5004375 C0,27.1487708 7.85020833,35.0004375 17.5,35.0004375 C27.1497917,35.0004375 35,27.1487708 35,17.5004375 C35,7.85064583 27.1497917,0.0004375 17.5,0.0004375 L17.5,0.0004375 Z" id="Fill-452"></path>
                </g>
            </g>
        </g>
    </g>
</svg>