<svg width="35px" height="35px" viewBox="0 0 35 35">
    <g id="Sign-up-page" stroke="none" stroke-width="1" fill="none" fill-rule="evenodd" sketch:type="MSPage">
        <g id="Sign-up---option-1" sketch:type="MSArtboardGroup" transform="translate(-333.000000, -492.000000)" fill="#FFFFFF">
            <g id="Sign-up-information" sketch:type="MSLayerGroup" transform="translate(303.000000, 162.000000)">
                <g id="Facebook-icon" transform="translate(30.000000, 330.000000)" sketch:type="MSShapeGroup">
                    <path d="M22.7422708,16.7708333 L19.6870625,16.7708333 L19.6870625,26.9791667 L15.3120625,26.9791667 L15.3120625,16.7708333 L12.3953958,16.7708333 L12.3953958,13.8541667 L15.3120625,13.8541667 L15.3120625,12.1566667 C15.3120625,10.5539583 15.8253958,8.04708333 19.1766458,8.04708333 L22.6037292,8.05583333 L22.6037292,11.41875 L20.5503958,11.41875 C20.1945625,11.41875 19.6870625,11.5995833 19.6870625,12.3622917 L19.6870625,13.8541667 L23.0981042,13.8541667 L22.7422708,16.7708333 Z M17.4995625,0 C7.84977083,0 -0.0004375,7.85020833 -0.0004375,17.5 C-0.0004375,27.1497917 7.84977083,35 17.4995625,35 C27.1493542,35 34.9995625,27.1497917 34.9995625,17.5 C34.9995625,7.85020833 27.1493542,0 17.4995625,0 L17.4995625,0 Z" id="Fill-403"></path>
                </g>
            </g>
        </g>
    </g>
</svg>