<?xml version="1.0" encoding="UTF-8" standalone="no"?>
<svg width="35px" height="35px" viewBox="0 0 35 35" version="1.1" xmlns="http://www.w3.org/2000/svg" xmlns:xlink="http://www.w3.org/1999/xlink" xmlns:sketch="http://www.bohemiancoding.com/sketch/ns">
    <!-- Generator: Sketch 3.5.1 (25234) - http://www.bohemiancoding.com/sketch -->
    <title>Twitter icon</title>
    <desc>Created with Sketch.</desc>
    <defs></defs>
    <g id="Sign-up-page" stroke="none" stroke-width="1" fill="none" fill-rule="evenodd" sketch:type="MSPage">
        <g id="Sign-up---option-1" sketch:type="MSArtboardGroup" transform="translate(-383.000000, -492.000000)" fill="#FFFFFF">
            <g id="Sign-up-information" sketch:type="MSLayerGroup" transform="translate(303.000000, 162.000000)">
                <g id="Twitter-icon" transform="translate(80.000000, 330.000000)" sketch:type="MSShapeGroup">
                    <path d="M25.1733125,13.6861667 C25.1820625,13.8509583 25.1849792,14.01575 25.1849792,14.182 C25.1849792,19.2540833 21.3233125,25.1049167 14.2635208,25.1049167 C12.0964375,25.1049167 10.0781042,24.467625 8.37914583,23.37825 C10.3828958,23.6130417 12.4216458,23.076375 14.0622708,21.790125 C12.3822708,21.7580417 10.9662292,20.64825 10.4776875,19.1228333 C11.0551875,19.2322083 11.6487292,19.2117917 12.2101875,19.0572083 C10.4543542,18.70575 9.13164583,17.1540833 9.13164583,15.2961667 L9.13164583,15.245125 C9.64935417,15.5324167 10.2428958,15.7045 10.8699792,15.7249167 C9.84039583,15.0365833 9.16227083,13.862625 9.16227083,12.5311667 C9.16227083,11.82825 9.35185417,11.1690833 9.68289583,10.6003333 C11.5758125,12.9234583 14.4035208,14.45325 17.5943542,14.61075 C17.5287292,14.33075 17.4937292,14.0361667 17.4937292,13.7372083 C17.4937292,11.6167917 19.2131042,9.89741667 21.3335208,9.89741667 C22.4374792,9.89741667 23.4349792,10.3640833 24.1349792,11.11075 C25.0099792,10.9372083 26.9787292,10.7242917 26.9787292,10.7242917 C26.4653958,11.4942917 25.9243542,13.1436667 25.1733125,13.6861667 M17.4995625,-0.000291666667 C7.84977083,-0.000291666667 -0.0004375,7.84991667 -0.0004375,17.4997083 C-0.0004375,27.1495 7.84977083,34.9997083 17.4995625,34.9997083 C27.1493542,34.9997083 34.9995625,27.1495 34.9995625,17.4997083 C34.9995625,7.84991667 27.1493542,-0.000291666667 17.4995625,-0.000291666667" id="Fill-400"></path>
                </g>
            </g>
        </g>
    </g>
</svg>